<?xml version="1.0" standalone="no"?>
<!DOCTYPE svg PUBLIC "-//W3C//DTD SVG 20010904//EN"
 "http://www.w3.org/TR/2001/REC-SVG-20010904/DTD/svg10.dtd">
<svg version="1.0" xmlns="http://www.w3.org/2000/svg"
 width="512.000000pt" height="512.000000pt" viewBox="0 0 512.000000 512.000000"
 preserveAspectRatio="xMidYMid meet">
<metadata>
Created by potrace 1.14, written by Peter Selinger 2001-2017
</metadata>
<g transform="translate(0.000000,512.000000) scale(0.100000,-0.100000)"
fill="#000000" stroke="none">
<path d="M2334 5110 c-491 -48 -931 -218 -1319 -509 -127 -96 -343 -306 -448
-436 -286 -355 -467 -768 -539 -1230 -17 -111 -21 -187 -22 -365 -1 -276 13
-395 50 -428 28 -25 42 -27 77 -11 40 18 49 50 35 132 -16 97 -16 499 0 602
79 498 251 887 550 1245 340 407 845 709 1353 809 201 39 264 45 484 45 403 1
719 -72 1074 -247 716 -352 1212 -1048 1323 -1857 19 -139 16 -488 -5 -631
-43 -293 -140 -581 -280 -834 -54 -98 -185 -295 -195 -295 -4 0 -30 37 -59 83
-202 322 -561 559 -933 616 -41 6 -90 14 -107 17 l-33 5 0 134 c0 133 0 135
28 167 51 58 113 157 149 236 19 42 38 83 42 91 4 8 31 20 61 28 203 52 430
362 430 587 0 123 -57 216 -166 271 -51 26 -70 30 -139 30 -44 0 -90 -4 -102
-8 l-22 -8 -3 403 -3 403 -27 57 c-31 67 -78 120 -247 276 -169 155 -228 184
-385 190 l-111 3 -445 -150 c-245 -83 -479 -167 -520 -188 -107 -52 -205 -152
-258 -264 -22 -46 -45 -108 -51 -137 -6 -31 -11 -167 -11 -324 0 -254 -1 -270
-17 -262 -10 4 -49 9 -88 11 -88 6 -163 -20 -229 -79 -122 -107 -133 -262 -31
-463 96 -191 247 -328 396 -359 19 -4 30 -18 48 -63 31 -77 90 -178 151 -258
l50 -64 0 -129 0 -129 -82 -7 c-167 -15 -371 -72 -519 -146 -212 -107 -464
-345 -564 -533 -11 -20 -23 -37 -26 -37 -11 0 -141 195 -198 297 -66 117 -131
263 -172 387 -43 131 -83 162 -144 114 -24 -19 -27 -26 -23 -67 12 -114 173
-465 305 -666 113 -171 221 -301 370 -445 404 -392 883 -621 1463 -701 141
-20 506 -17 655 5 561 81 1033 312 1432 700 226 219 377 425 512 697 187 375
266 718 265 1144 -1 429 -81 770 -271 1149 -184 368 -481 710 -824 948 -326
227 -687 370 -1083 429 -151 23 -464 32 -602 19z m750 -609 c28 -14 108 -79
194 -160 197 -185 192 -172 192 -454 l0 -218 -37 8 c-21 4 -273 8 -559 8 -499
0 -523 -1 -543 -19 -29 -26 -29 -86 0 -112 20 -18 48 -19 556 -24 l535 -5 24
-28 c24 -28 24 -30 24 -257 0 -125 3 -236 6 -245 9 -24 60 -46 89 -39 40 10
50 32 55 128 5 89 5 91 39 113 43 29 101 30 159 2 65 -32 84 -68 79 -152 -8
-118 -102 -274 -227 -376 l-55 -44 -6 38 c-7 43 -39 75 -74 75 -29 0 -75 -36
-75 -59 0 -42 -45 -183 -84 -266 -86 -179 -180 -278 -421 -442 -226 -154 -251
-167 -343 -172 -42 -2 -93 2 -120 10 -70 19 -421 257 -507 343 -117 117 -196
251 -246 417 -22 71 -23 93 -27 485 l-3 411 26 32 27 31 127 0 c71 0 142 5
158 10 30 11 53 45 53 79 0 27 -36 59 -76 67 -43 8 -271 0 -296 -11 -17 -7
-18 2 -18 104 0 87 5 126 21 173 40 119 116 208 224 261 28 14 237 88 465 165
228 77 422 142 430 146 8 3 53 4 100 3 65 -2 97 -9 134 -26z m-1561 -1306 l37
-26 0 -232 c0 -128 3 -250 7 -271 l6 -39 -32 19 c-83 48 -196 191 -242 305
-29 73 -31 159 -3 196 54 72 158 94 227 48z m660 -1379 c214 -143 275 -169
402 -170 133 -1 192 24 408 169 l187 125 0 -157 c0 -100 -5 -176 -14 -208 -42
-159 -159 -283 -316 -335 -80 -27 -313 -38 -432 -21 -214 30 -384 194 -417
401 -10 63 -16 320 -7 320 3 0 88 -56 189 -124z"/>
<path d="M2110 3123 c-60 -18 -90 -56 -90 -113 0 -69 45 -110 119 -110 77 0
128 79 98 152 -21 50 -83 85 -127 71z"/>
<path d="M2994 3116 c-80 -36 -98 -132 -35 -188 68 -61 176 -22 187 67 10 87
-75 155 -152 121z"/>
<path d="M2262 2517 c-12 -13 -22 -34 -22 -47 0 -57 100 -152 203 -193 39 -16
74 -21 142 -21 122 0 185 25 271 108 75 71 88 106 54 149 -36 45 -75 38 -142
-28 -120 -115 -260 -111 -378 9 -52 54 -92 61 -128 23z"/>
</g>
</svg>
